# Blender v3.1.2 OBJ File: 'bullet.blend'
# www.blender.org
mtllib bullet.mtl
o Cube
v -1.398085 0.000584 0.000000
v -0.000951 -0.400693 -0.000531
v 0.000636 -0.000244 -0.238586
v 0.797255 0.001324 -0.000000
v 0.000493 0.394726 -0.001631
v -0.000951 -0.400693 0.000531
v 0.000636 -0.000244 0.238586
v 0.000493 0.394726 0.001631
vt 0.625000 0.500000
vt 0.625000 0.250000
vt 0.625000 0.625000
vt 0.625000 0.750000
vt 0.625000 0.500000
vt 0.625000 0.625000
vt 0.625000 0.250000
vt 0.625000 0.500000
vn 0.2501 -0.4955 -0.8318
vn -0.1444 0.5090 -0.8485
vn 0.2478 0.4985 -0.8307
vn -0.1454 -0.5051 -0.8507
vn 0.2501 -0.4955 0.8318
vn -0.1444 0.5090 0.8485
vn 0.2478 0.4985 0.8307
vn -0.1454 -0.5051 0.8507
usemtl Material
s off
f 4/1/1 2/2/1 3/3/1
f 1/4/2 5/5/2 3/3/2
f 5/5/3 4/1/3 3/3/3
f 2/2/4 1/4/4 3/3/4
f 4/1/5 7/6/5 6/7/5
f 1/4/6 7/6/6 8/8/6
f 8/8/7 7/6/7 4/1/7
f 6/7/8 7/6/8 1/4/8
